<svg width="680" height="250" viewBox="0 0 680 250" xmlns="http://www.w3.org/2000/svg" style="font-family: sans-serif; background: #1a1a18;">
  <defs>
    <marker id="arrow" viewBox="0 0 10 10" refX="8" refY="5" markerWidth="6" markerHeight="6" orient="auto-start-reverse">
      <path d="M2 1L8 5L2 9" fill="none" stroke="context-stroke" stroke-width="1.5" stroke-linecap="round" stroke-linejoin="round"/>
    </marker>
  </defs>

  <!-- STATIC INPUT SOURCE -->
  <rect x="276" y="8" width="108" height="24" rx="6" fill="#633806" stroke="#FAC775" stroke-width="1"/>
  <text x="330" y="20" text-anchor="middle" dominant-baseline="central" font-size="13" font-weight="600" fill="#FAC775">static input</text>

  <!-- Dashed arrow: static input → top row -->
  <line x1="330" y1="32" x2="330" y2="63" stroke="#FAC775" stroke-width="1.5" stroke-dasharray="4 3" marker-end="url(#arrow)"/>

  <!-- DYNAMIC INPUT label (top) -->
  <text x="10" y="84" text-anchor="start" font-size="12" fill="#D3D1C7">dynamic input</text>
  <line x1="106" y1="80" x2="148" y2="80" stroke="#D3D1C7" stroke-width="1.5" marker-end="url(#arrow)"/>

  <!-- TOP ROW -->
  <!-- A A -->
  <rect x="152" y="66" width="18" height="28" rx="3" fill="#3C3489" stroke="#AFA9EC" stroke-width="1"/>
  <text x="161" y="80" text-anchor="middle" dominant-baseline="central" font-size="13" font-weight="600" fill="#CECBF6">A</text>
  <rect x="171" y="66" width="18" height="28" rx="3" fill="#3C3489" stroke="#AFA9EC" stroke-width="1"/>
  <text x="180" y="80" text-anchor="middle" dominant-baseline="central" font-size="13" font-weight="600" fill="#CECBF6">A</text>
  <!-- static -->
  <rect x="190" y="66" width="18" height="28" rx="3" fill="#633806" stroke="#FAC775" stroke-width="1"/>
  <rect x="209" y="66" width="18" height="28" rx="3" fill="#633806" stroke="#FAC775" stroke-width="1"/>
  <rect x="228" y="66" width="18" height="28" rx="3" fill="#633806" stroke="#FAC775" stroke-width="1"/>
  <!-- B -->
  <rect x="247" y="66" width="18" height="28" rx="3" fill="#3C3489" stroke="#AFA9EC" stroke-width="1"/>
  <text x="256" y="80" text-anchor="middle" dominant-baseline="central" font-size="13" font-weight="600" fill="#CECBF6">B</text>
  <!-- static -->
  <rect x="266" y="66" width="18" height="28" rx="3" fill="#633806" stroke="#FAC775" stroke-width="1"/>
  <rect x="285" y="66" width="18" height="28" rx="3" fill="#633806" stroke="#FAC775" stroke-width="1"/>
  <!-- C -->
  <rect x="304" y="66" width="18" height="28" rx="3" fill="#3C3489" stroke="#AFA9EC" stroke-width="1"/>
  <text x="313" y="80" text-anchor="middle" dominant-baseline="central" font-size="13" font-weight="600" fill="#CECBF6">C</text>
  <!-- static -->
  <rect x="323" y="66" width="18" height="28" rx="3" fill="#633806" stroke="#FAC775" stroke-width="1"/>
  <rect x="342" y="66" width="18" height="28" rx="3" fill="#633806" stroke="#FAC775" stroke-width="1"/>
  <!-- D D -->
  <rect x="361" y="66" width="18" height="28" rx="3" fill="#3C3489" stroke="#AFA9EC" stroke-width="1"/>
  <text x="370" y="80" text-anchor="middle" dominant-baseline="central" font-size="13" font-weight="600" fill="#CECBF6">D</text>
  <rect x="380" y="66" width="18" height="28" rx="3" fill="#3C3489" stroke="#AFA9EC" stroke-width="1"/>
  <text x="389" y="80" text-anchor="middle" dominant-baseline="central" font-size="13" font-weight="600" fill="#CECBF6">D</text>
  <!-- static -->
  <rect x="399" y="66" width="18" height="28" rx="3" fill="#633806" stroke="#FAC775" stroke-width="1"/>
  <rect x="418" y="66" width="18" height="28" rx="3" fill="#633806" stroke="#FAC775" stroke-width="1"/>
  <rect x="437" y="66" width="18" height="28" rx="3" fill="#633806" stroke="#FAC775" stroke-width="1"/>
  <!-- E E E -->
  <rect x="456" y="66" width="18" height="28" rx="3" fill="#3C3489" stroke="#AFA9EC" stroke-width="1"/>
  <text x="465" y="80" text-anchor="middle" dominant-baseline="central" font-size="13" font-weight="600" fill="#CECBF6">E</text>
  <rect x="475" y="66" width="18" height="28" rx="3" fill="#3C3489" stroke="#AFA9EC" stroke-width="1"/>
  <text x="484" y="80" text-anchor="middle" dominant-baseline="central" font-size="13" font-weight="600" fill="#CECBF6">E</text>
  <rect x="494" y="66" width="18" height="28" rx="3" fill="#3C3489" stroke="#AFA9EC" stroke-width="1"/>
  <text x="503" y="80" text-anchor="middle" dominant-baseline="central" font-size="13" font-weight="600" fill="#CECBF6">E</text>

  <!-- CALLOUT ①: 재계산 불필요 -->
  <line x1="514" y1="80" x2="526" y2="73" stroke="#888780" stroke-width="0.5" stroke-dasharray="3 2"/>
  <text x="528" y="73" text-anchor="start" font-size="12" fill="#FAC775">① 재계산 불필요</text>

  <!-- LEGEND -->
  <rect x="152" y="104" width="10" height="10" rx="2" fill="#3C3489" stroke="#AFA9EC" stroke-width="1"/>
  <text x="166" y="113" font-size="12" fill="#D3D1C7">dynamic token</text>
  <rect x="278" y="104" width="10" height="10" rx="2" fill="#633806" stroke="#FAC775" stroke-width="1"/>
  <text x="292" y="113" font-size="12" fill="#D3D1C7">static-only 계산 (제거됨)</text>

  <!-- MIDDLE ARROW + LABEL -->
  <line x1="320" y1="122" x2="320" y2="161" stroke="#D3D1C7" stroke-width="1.5" marker-end="url(#arrow)"/>
  <text x="332" y="139" font-size="12" fill="#D3D1C7">partial evaluation</text>
  <text x="332" y="154" font-size="12" fill="#B4B2A9">(static input에 specialize)</text>

  <!-- ③ STATIC INPUT 불필요 (strikethrough) -->
  <text x="330" y="175" text-anchor="middle" font-size="12" fill="#444441" text-decoration="line-through">static input</text>
  <text x="384" y="175" text-anchor="start" font-size="12" fill="#5F5E5A">③ 불필요</text>

  <!-- DYNAMIC INPUT label (bottom) -->
  <text x="10" y="207" text-anchor="start" font-size="12" fill="#D3D1C7">dynamic input</text>
  <line x1="106" y1="203" x2="148" y2="203" stroke="#D3D1C7" stroke-width="1.5" marker-end="url(#arrow)"/>

  <!-- BOTTOM ROW -->
  <rect x="152" y="189" width="18" height="28" rx="3" fill="#3C3489" stroke="#AFA9EC" stroke-width="1"/>
  <text x="161" y="203" text-anchor="middle" dominant-baseline="central" font-size="13" font-weight="600" fill="#CECBF6">A</text>
  <rect x="171" y="189" width="18" height="28" rx="3" fill="#3C3489" stroke="#AFA9EC" stroke-width="1"/>
  <text x="180" y="203" text-anchor="middle" dominant-baseline="central" font-size="13" font-weight="600" fill="#CECBF6">A</text>
  <rect x="190" y="189" width="18" height="28" rx="3" fill="#3C3489" stroke="#AFA9EC" stroke-width="1"/>
  <text x="199" y="203" text-anchor="middle" dominant-baseline="central" font-size="13" font-weight="600" fill="#CECBF6">B</text>
  <rect x="209" y="189" width="18" height="28" rx="3" fill="#3C3489" stroke="#AFA9EC" stroke-width="1"/>
  <text x="218" y="203" text-anchor="middle" dominant-baseline="central" font-size="13" font-weight="600" fill="#CECBF6">C</text>
  <rect x="228" y="189" width="18" height="28" rx="3" fill="#3C3489" stroke="#AFA9EC" stroke-width="1"/>
  <text x="237" y="203" text-anchor="middle" dominant-baseline="central" font-size="13" font-weight="600" fill="#CECBF6">D</text>
  <rect x="247" y="189" width="18" height="28" rx="3" fill="#3C3489" stroke="#AFA9EC" stroke-width="1"/>
  <text x="256" y="203" text-anchor="middle" dominant-baseline="central" font-size="13" font-weight="600" fill="#CECBF6">D</text>
  <rect x="266" y="189" width="18" height="28" rx="3" fill="#3C3489" stroke="#AFA9EC" stroke-width="1"/>
  <text x="275" y="203" text-anchor="middle" dominant-baseline="central" font-size="13" font-weight="600" fill="#CECBF6">E</text>
  <rect x="285" y="189" width="18" height="28" rx="3" fill="#3C3489" stroke="#AFA9EC" stroke-width="1"/>
  <text x="294" y="203" text-anchor="middle" dominant-baseline="central" font-size="13" font-weight="600" fill="#CECBF6">E</text>
  <rect x="304" y="189" width="18" height="28" rx="3" fill="#3C3489" stroke="#AFA9EC" stroke-width="1"/>
  <text x="313" y="203" text-anchor="middle" dominant-baseline="central" font-size="13" font-weight="600" fill="#CECBF6">E</text>

  <!-- CALLOUT ②: static 효과 반영됨 -->
  <line x1="324" y1="203" x2="336" y2="203" stroke="#888780" stroke-width="0.5" stroke-dasharray="3 2"/>
  <text x="338" y="207" text-anchor="start" font-size="12" fill="#AFA9EC">② static 효과 반영됨</text>
</svg>
