<svg xmlns="http://www.w3.org/2000/svg" width="680" height="565" viewBox="0 0 680 565" font-family="-apple-system, BlinkMacSystemFont, 'Segoe UI', Roboto, 'Apple SD Gothic Neo', 'Malgun Gothic', sans-serif">
  <defs>
    <marker id="arrow" viewBox="0 0 10 10" refX="8" refY="5" markerWidth="6" markerHeight="6" orient="auto-start-reverse">
      <path d="M2 1L8 5L2 9" fill="none" stroke="context-stroke" stroke-width="1.5" stroke-linecap="round" stroke-linejoin="round"/>
    </marker>
  </defs>

  <text x="340" y="30" text-anchor="middle" dominant-baseline="central" font-size="14" font-weight="500" fill="#D3D1C7">Processor Design의 핵심 질문</text>

  <rect x="488" y="22" width="14" height="14" rx="2" fill="#3C3489" stroke="#AFA9EC" stroke-width="0.5"/>
  <text x="508" y="29" dominant-baseline="central" font-size="12" fill="#B4B2A9">SW</text>
  <rect x="548" y="22" width="14" height="14" rx="2" fill="#085041" stroke="#5DCAA5" stroke-width="0.5"/>
  <text x="568" y="29" dominant-baseline="central" font-size="12" fill="#B4B2A9">HW</text>

  <rect x="180" y="70" width="240" height="40" rx="6" fill="#444441" stroke="#B4B2A9" stroke-width="0.5"/>
  <text x="300" y="90" text-anchor="middle" dominant-baseline="central" font-size="14" font-weight="500" fill="#D3D1C7">개발자 (Developer)</text>
  <line x1="300" y1="110" x2="300" y2="138" stroke="#9c9a92" stroke-width="1" marker-end="url(#arrow)"/>

  <rect x="180" y="140" width="240" height="40" rx="6" fill="#3C3489" stroke="#AFA9EC" stroke-width="0.5"/>
  <text x="300" y="160" text-anchor="middle" dominant-baseline="central" font-size="14" font-weight="500" fill="#CECBF6">Programming Language</text>
  <line x1="300" y1="180" x2="300" y2="208" stroke="#9c9a92" stroke-width="1" marker-end="url(#arrow)"/>

  <rect x="180" y="210" width="240" height="40" rx="6" fill="#3C3489" stroke="#AFA9EC" stroke-width="0.5"/>
  <text x="300" y="230" text-anchor="middle" dominant-baseline="central" font-size="14" font-weight="500" fill="#CECBF6">Compiler</text>
  <line x1="300" y1="250" x2="300" y2="278" stroke="#9c9a92" stroke-width="1" marker-end="url(#arrow)"/>

  <rect x="180" y="280" width="240" height="40" rx="6" fill="#085041" stroke="#5DCAA5" stroke-width="0.5"/>
  <text x="300" y="300" text-anchor="middle" dominant-baseline="central" font-size="14" font-weight="500" fill="#9FE1CB">Instruction Set Architecture</text>
  <line x1="300" y1="320" x2="300" y2="348" stroke="#9c9a92" stroke-width="1" marker-end="url(#arrow)"/>

  <rect x="180" y="350" width="240" height="40" rx="6" fill="#085041" stroke="#5DCAA5" stroke-width="0.5"/>
  <text x="300" y="370" text-anchor="middle" dominant-baseline="central" font-size="14" font-weight="500" fill="#9FE1CB">Control Logic</text>
  <line x1="300" y1="390" x2="300" y2="418" stroke="#9c9a92" stroke-width="1" marker-end="url(#arrow)"/>

  <rect x="180" y="420" width="240" height="40" rx="6" fill="#085041" stroke="#5DCAA5" stroke-width="0.5"/>
  <text x="300" y="440" text-anchor="middle" dominant-baseline="central" font-size="14" font-weight="500" fill="#9FE1CB">Datapath</text>

  <text x="160" y="443" text-anchor="end" font-size="12" fill="#85B7EB">성능이 드러나는 layer</text>
  <line x1="163" y1="440" x2="178" y2="440" stroke="#85B7EB" stroke-width="1" marker-end="url(#arrow)"/>

  <path d="M 500 520 V 370 H 425" fill="none" stroke="#9c9a92" stroke-width="2" marker-end="url(#arrow)"/>
  <path d="M 560 520 V 230 H 425" fill="none" stroke="#9c9a92" stroke-width="2" marker-end="url(#arrow)"/>
  <path d="M 620 520 V 90 H 425" fill="none" stroke="#9c9a92" stroke-width="2" marker-end="url(#arrow)"/>

  <rect x="488" y="525" width="24" height="22" rx="3" fill="#633806" stroke="#EF9F27" stroke-width="0.5"/>
  <text x="500" y="536" text-anchor="middle" dominant-baseline="central" font-size="14" font-weight="500" fill="#FAC775">1</text>
  <rect x="548" y="525" width="24" height="22" rx="3" fill="#633806" stroke="#EF9F27" stroke-width="0.5"/>
  <text x="560" y="536" text-anchor="middle" dominant-baseline="central" font-size="14" font-weight="500" fill="#FAC775">2</text>
  <rect x="608" y="525" width="24" height="22" rx="3" fill="#633806" stroke="#EF9F27" stroke-width="0.5"/>
  <text x="620" y="536" text-anchor="middle" dominant-baseline="central" font-size="14" font-weight="500" fill="#FAC775">3</text>
</svg>
