<svg xmlns="http://www.w3.org/2000/svg" width="680" height="565" viewBox="0 0 680 565" font-family="-apple-system, BlinkMacSystemFont, 'Segoe UI', Roboto, 'Apple SD Gothic Neo', 'Malgun Gothic', sans-serif">
  <defs>
    <marker id="arrow" viewBox="0 0 10 10" refX="8" refY="5" markerWidth="6" markerHeight="6" orient="auto-start-reverse">
      <path d="M2 1L8 5L2 9" fill="none" stroke="context-stroke" stroke-width="1.5" stroke-linecap="round" stroke-linejoin="round"/>
    </marker>
  </defs>

  <text x="340" y="30" text-anchor="middle" dominant-baseline="central" font-size="14" font-weight="500" fill="#2C2C2A">Processor Design의 핵심 질문</text>

  <rect x="488" y="22" width="14" height="14" rx="2" fill="#EEEDFE" stroke="#534AB7" stroke-width="0.5"/>
  <text x="508" y="29" dominant-baseline="central" font-size="12" fill="#5F5E5A">SW</text>
  <rect x="548" y="22" width="14" height="14" rx="2" fill="#E1F5EE" stroke="#0F6E56" stroke-width="0.5"/>
  <text x="568" y="29" dominant-baseline="central" font-size="12" fill="#5F5E5A">HW</text>

  <rect x="180" y="70" width="240" height="40" rx="6" fill="#F1EFE8" stroke="#5F5E5A" stroke-width="0.5"/>
  <text x="300" y="90" text-anchor="middle" dominant-baseline="central" font-size="14" font-weight="500" fill="#2C2C2A">개발자 (Developer)</text>
  <line x1="300" y1="110" x2="300" y2="138" stroke="#73726c" stroke-width="1" marker-end="url(#arrow)"/>

  <rect x="180" y="140" width="240" height="40" rx="6" fill="#EEEDFE" stroke="#534AB7" stroke-width="0.5"/>
  <text x="300" y="160" text-anchor="middle" dominant-baseline="central" font-size="14" font-weight="500" fill="#3C3489">Programming Language</text>
  <line x1="300" y1="180" x2="300" y2="208" stroke="#73726c" stroke-width="1" marker-end="url(#arrow)"/>

  <rect x="180" y="210" width="240" height="40" rx="6" fill="#EEEDFE" stroke="#534AB7" stroke-width="0.5"/>
  <text x="300" y="230" text-anchor="middle" dominant-baseline="central" font-size="14" font-weight="500" fill="#3C3489">Compiler</text>
  <line x1="300" y1="250" x2="300" y2="278" stroke="#73726c" stroke-width="1" marker-end="url(#arrow)"/>

  <rect x="180" y="280" width="240" height="40" rx="6" fill="#E1F5EE" stroke="#0F6E56" stroke-width="0.5"/>
  <text x="300" y="300" text-anchor="middle" dominant-baseline="central" font-size="14" font-weight="500" fill="#085041">Instruction Set Architecture</text>
  <line x1="300" y1="320" x2="300" y2="348" stroke="#73726c" stroke-width="1" marker-end="url(#arrow)"/>

  <rect x="180" y="350" width="240" height="40" rx="6" fill="#E1F5EE" stroke="#0F6E56" stroke-width="0.5"/>
  <text x="300" y="370" text-anchor="middle" dominant-baseline="central" font-size="14" font-weight="500" fill="#085041">Control Logic</text>
  <line x1="300" y1="390" x2="300" y2="418" stroke="#73726c" stroke-width="1" marker-end="url(#arrow)"/>

  <rect x="180" y="420" width="240" height="40" rx="6" fill="#E1F5EE" stroke="#0F6E56" stroke-width="0.5"/>
  <text x="300" y="440" text-anchor="middle" dominant-baseline="central" font-size="14" font-weight="500" fill="#085041">Datapath</text>

  <text x="160" y="443" text-anchor="end" font-size="12" fill="#185FA5">성능이 드러나는 layer</text>
  <line x1="163" y1="440" x2="178" y2="440" stroke="#378ADD" stroke-width="1" marker-end="url(#arrow)"/>

  <path d="M 500 520 V 370 H 425" fill="none" stroke="#73726c" stroke-width="2" marker-end="url(#arrow)"/>
  <path d="M 560 520 V 230 H 425" fill="none" stroke="#73726c" stroke-width="2" marker-end="url(#arrow)"/>
  <path d="M 620 520 V 90 H 425" fill="none" stroke="#73726c" stroke-width="2" marker-end="url(#arrow)"/>

  <rect x="488" y="525" width="24" height="22" rx="3" fill="#FAEEDA" stroke="#854F0B" stroke-width="0.5"/>
  <text x="500" y="536" text-anchor="middle" dominant-baseline="central" font-size="14" font-weight="500" fill="#633806">1</text>
  <rect x="548" y="525" width="24" height="22" rx="3" fill="#FAEEDA" stroke="#854F0B" stroke-width="0.5"/>
  <text x="560" y="536" text-anchor="middle" dominant-baseline="central" font-size="14" font-weight="500" fill="#633806">2</text>
  <rect x="608" y="525" width="24" height="22" rx="3" fill="#FAEEDA" stroke="#854F0B" stroke-width="0.5"/>
  <text x="620" y="536" text-anchor="middle" dominant-baseline="central" font-size="14" font-weight="500" fill="#633806">3</text>
</svg>
